# xmcd CD database file
#
# Track frame offsets:
#	150
#	17410
#	48721
#	70770
#	91047
#	111922
#	141386
#	157092
#	180511
#
# Disc length: 2679 seconds
#
# Revision: 0
# Processed by: cddbd v1.5.2PL0 Copyright (c) Steve Scherf et al.
# Submitted via: CDex 1.70beta2
#
DISCID=740a7509
DTITLE=Sarcastic Existence - Arts of Execution
DYEAR=1995
DGENRE=Thrash Metal
TTITLE0=Arts of Execution
TTITLE1=Kill your Neighbour
TTITLE2=Fear of Indication
TTITLE3=Suicid Mentality
TTITLE4=Denial of Christianity
TTITLE5=Cosmic Drama
TTITLE6=Sacrificed
TTITLE7=Strangulation
TTITLE8=Infected State
EXTD=YEAR: 1995
EXTT0=
EXTT1=
EXTT2=
EXTT3=
EXTT4=
EXTT5=
EXTT6=
EXTT7=
EXTT8=
PLAYORDER=
